<?xml version="1.0" encoding="UTF-8" standalone="no"?>
<!-- Created with Inkscape (http://www.inkscape.org/) -->

<svg
   width="210mm"
   height="297mm"
   viewBox="0 0 210 297"
   version="1.1"
   id="svg1"
   xml:space="preserve"
   xmlns="http://www.w3.org/2000/svg"
   xmlns:svg="http://www.w3.org/2000/svg"><defs
     id="defs1" /><g
     id="layer1"><path
       style="fill:#212121;stroke:none;stroke-width:1.18432"
       d="m 68.024564,105.24862 c 2.384898,-0.81085 4.17863,-3.35458 5.635718,-5.326951 3.212024,-4.347923 6.01071,-8.866553 8.271141,-13.787425 0.746387,-1.624858 0.888049,-4.91354 2.234802,-6.073353 0.99148,-0.853845 3.599026,-0.193731 4.852821,-0.19366 4.357851,2.84e-4 8.84023,-0.08065 13.160734,-0.626705 0.61595,7.010741 6.91928,13.165043 14.10077,12.155152 2.76407,-0.388692 4.46666,-2.352159 6.89371,-3.381331 1.44756,6.774043 4.63482,13.128803 5.90046,20.054423 2.56924,14.059 -1.65225,26.8102 -6.66812,39.79552 -1.45045,3.75498 -2.50753,7.63855 -3.13013,11.59396 -0.27426,1.74237 -1.2043,3.88895 1.07763,4.38691 2.04729,-15.20338 11.16474,-28.6762 11.55359,-44.18241 0.19473,-7.76497 -1.52444,-15.78832 -3.7307,-23.18794 -0.91381,-3.06481 -3.74874,-7.483295 -3.57138,-10.653924 0.16843,-3.01103 2.27848,-6.191833 2.58901,-9.400514 0.31776,-3.283578 -0.32245,-6.460555 -0.54546,-9.713861 -0.60461,-8.820448 -2.25412,-18.660296 -7.60939,-25.980038 -8.22117,-11.236925 -24.271549,-13.092815 -35.637576,-5.773277 -3.517256,2.265059 -5.856713,8.067913 -9.737561,9.328698 -6.247664,2.029692 -13.172727,-6.036185 -18.587537,0.808028 -0.665645,0.841365 -1.262185,1.785816 -1.584644,2.815561 -3.79632,12.123258 11.088962,19.275075 19.544514,24.116621 2.55148,1.460949 8.354231,3.683284 8.838362,6.905076 0.254942,1.696593 -0.735276,3.764386 -1.293298,5.325754 -1.769606,4.951439 -4.920878,9.593735 -8.078442,13.760576 -1.494344,1.971994 -5.192698,4.58558 -4.479024,7.23511 M 101.86642,77.360423 c -5.338459,0.421333 -11.269493,1.425207 -16.60734,0.487678 -2.739619,-0.481176 -6.354672,-4.399156 -8.863761,-5.969856 -7.606696,-4.761806 -26.33294,-12.267923 -20.7481,-24.273768 3.759661,-8.082224 13.089956,0.935705 18.957705,-1.730452 2.694099,-1.22413 3.990351,-3.979248 5.993315,-5.998392 3.584119,-3.613055 7.996673,-6.415385 13.121068,-7.231235 9.761013,-1.554054 19.997753,2.364605 25.172973,11.187772 3.28453,5.599743 4.23444,11.595121 5.32261,17.860737 1.04997,6.045712 2.01512,13.076871 0.33995,19.114375 -2.00431,7.223717 -10.03975,11.611954 -16.32711,6.371944 -8.771365,-7.310218 -3.2931,-22.615274 0.39289,-31.126627 1.16102,-2.680926 2.44037,-5.324842 3.93454,-7.833758 0.25903,-0.434976 1.28676,-2.09148 0.22074,-2.309032 -1.45196,-0.29631 -3.95619,5.57623 -4.50949,6.695931 -3.79323,7.676326 -6.39999,16.16468 -6.39999,24.754683 m -30.395001,57.969837 -2.820154,7.52041 c -4.774407,-2.88258 -14.314317,-2.53896 -16.137794,4.07357 -1.619339,5.87223 6.356454,5.78963 9.870784,4.44734 3.016772,-1.15225 4.499655,-4.12973 7.207061,-5.38739 1.183173,2.85095 2.940472,5.29649 3.381331,8.46046 1.240311,8.90142 -3.743681,16.88397 -5.1594,25.38138 -0.646716,3.8817 0.892353,6.26544 4.598224,7.41136 1.997474,0.61767 6.158492,1.04992 5.59848,4.18261 -0.944278,5.28232 -9.578562,4.69406 -13.432243,4.70025 -6.772351,0.0107 -13.569669,0.59871 -20.367781,0.30102 -6.967755,-0.3051 -14.031993,-1.2403 -20.994483,-1.24107 0,-24.07388 8.883631,-52.93727 26.675409,-69.82855 14.515625,-13.78093 38.236117,-11.24384 45.658756,8.41187 3.955324,10.474 4.294288,21.91478 5.690111,32.90179 1.90032,-0.53711 1.51968,-2.13727 1.29426,-3.7602 -0.4202,-3.02526 -0.51749,-6.05455 -0.94005,-9.08717 -1.719454,-12.33994 -3.30875,-27.30452 -14.74029,-34.88731 -13.256108,-8.79308 -29.613198,-3.20055 -40.176561,6.90821 -6.308498,6.037 -10.687564,13.82543 -14.25817,21.71209 -6.614809,14.61063 -11.083568,30.89429 -11.083568,47.00258 -9.91448,-2.35607 -10.532312,-13.17627 -8.769218,-21.30784 2.91695,-13.45327 5.971361,-26.55461 5.949064,-40.4222 -0.01007,-6.28836 -1.307752,-13.86692 -7.520411,-16.97364 -1.4861733,-0.74318 -8.316661,-2.53254 -8.7984766,0.36122 -0.1262777,0.75842 0.7624228,0.82738 1.2841096,0.78894 2.1384805,-0.15757 3.4967059,-0.70461 5.6342638,0.0965 4.2654622,1.59853 6.5681222,6.10797 7.1176012,10.40004 2.031815,15.87085 -2.835065,31.30519 -5.742342,46.68922 -1.4431051,7.63628 -0.9041462,16.2503 6.459712,20.72344 4.930052,2.99474 11.950035,2.54513 17.546417,2.79018 10.116188,0.44297 20.593123,1.49618 30.708348,0.16804 4.549416,-0.59735 11.96108,0.87075 14.221902,-4.57187 0.283276,-0.68195 0.446808,-1.45017 0.449237,-2.18886 0.02219,-6.75475 -9.823702,-3.4285 -10.266101,-8.77841 -0.606648,-7.33615 4.739473,-14.86212 5.28054,-22.24329 0.283439,-3.8666 -0.114156,-7.69094 -1.631797,-11.28062 -0.642939,-1.52075 -2.463266,-3.16022 -2.713521,-4.72831 -0.338165,-2.1189 4.918564,-8.42648 0.92675,-8.74576 m -3.760206,8.77382 c -1.695088,3.50923 -5.443829,6.26168 -9.400515,6.26653 -1.338351,0.001 -3.575837,-0.0867 -4.124812,-1.6318 -0.482659,-1.35846 1.02536,-3.11717 1.948285,-3.92558 3.312991,-2.90194 7.868145,-2.0261 11.577042,-0.70915 M 202.76528,166.352 v 26.0081 h 4.70026 V 166.352 h -4.70026 m -63.9235,20.36779 c 0,1.22605 -0.42909,3.45743 0.32205,4.49596 0.69584,0.96204 2.38329,1.03434 3.43816,1.29305 4.08204,1.00108 9.59788,0.27699 11.69163,-3.90891 2.26979,-4.53783 -1.37685,-8.3274 -5.11127,-10.20879 -1.54616,-0.77896 -4.55712,-1.759 -4.55712,-3.89198 0,-4.72073 6.33033,-0.78267 8.194,-1.47174 1.09712,-0.40563 1.59933,-2.55689 2.00343,-3.54186 -6.01141,-3.15502 -18.82163,-1.92215 -15.05485,7.83375 1.64273,4.25463 6.84643,3.89458 9.18194,7.26171 2.54685,3.67185 -3.3578,3.95736 -5.40771,3.39559 -1.55431,-0.42595 -3.09989,-1.09303 -4.70026,-1.25678 M 84.005438,167.91876 v 24.44134 h 5.326958 v -8.46047 c 2.948298,0 6.330837,-0.15599 8.772613,-2.00051 3.305051,-2.49661 3.783801,-9.21416 0.462275,-11.96148 -3.749358,-3.1012 -10.062673,-2.01888 -14.561846,-2.01888 m 39.168822,9.71386 h 2.5068 c 0,3.97893 -1.17355,10.07086 1.34867,13.43225 1.4433,1.92352 7.2963,2.87558 8.98319,0.7505 0.64703,-0.81511 0.32206,-2.55024 0.32206,-3.52883 -1.37401,0.17364 -3.37744,0.77711 -4.56437,-0.2326 -1.87793,-1.59751 -0.7626,-8.11094 -0.7626,-10.42132 h 5.01362 v -3.76021 h -5.01362 v -4.07355 c -3.72994,0 -2.97167,1.04982 -4.97902,3.55057 -1.3947,1.73752 -2.82508,1.77917 -2.85473,4.28319 m -33.841864,1.8801 v -7.20705 c 1.508062,0 3.308294,-0.26786 4.658664,0.54013 1.9462,1.16452 2.074011,4.36165 0.248316,5.70343 -1.421322,1.04457 -3.240078,0.9633 -4.90698,0.96349 m 30.708354,8.14712 c -4.51626,0.80207 -8.91762,2.74579 -10.96727,-2.82015 3.29023,-0.78334 8.21246,0.9583 11.18101,-0.50243 0.98707,-0.48571 0.73035,-2.04454 0.72608,-2.94443 -0.0135,-2.84142 -1.21387,-5.52238 -3.77231,-6.97204 -9.18723,-5.20567 -16.7813,6.60162 -11.98106,14.48012 2.31401,3.79791 7.08471,4.3659 11.05335,3.65165 1.04363,-0.18783 2.48772,-0.12652 3.25778,-0.9802 0.83746,-0.92839 0.50242,-2.7583 0.50242,-3.91252 m 44.80913,-14.25188 c -11.19623,2.37522 -8.45227,21.68793 3.1335,19.3003 2.96805,-0.61165 5.26074,-1.63685 6.78322,-4.42196 3.7496,-6.85924 -1.66322,-16.62929 -9.91672,-14.87834 m 15.04082,0.46445 c 0,6.78937 -2.2924,21.70229 9.08716,18.52249 1.51773,-0.42408 2.51042,-1.33831 3.7602,-2.22825 l 0.31336,2.19345 h 4.07355 v -18.48769 h -5.0136 c 0,3.73761 0.70155,8.31933 -0.51331,11.90733 -0.61678,1.82158 -2.52214,3.40306 -4.49426,2.52591 -3.79226,-1.68673 -2.1995,-11.07435 -2.1995,-14.43324 h -5.0136 m -63.61015,6.89372 -6.89372,0.31335 c 0.1276,-5.30259 5.58474,-4.79317 6.89372,-0.31335 m 49.20086,-2.99762 c 5.88899,-1.65781 6.96341,9.29506 2.49737,10.67035 -5.87652,1.80965 -7.00963,-9.40011 -2.49737,-10.67035 z"
       id="path1" /></g></svg>
